Coordinates
version=1
nRows=12
nColumns=35
inDegrees=yes

Units are S.I. units (second, meters, Newtons, ...)
If the header above contains a line with 'inDegrees', this indicates whether rotational values are in degrees (yes) or radians (no).

endheader
time	joint_0	joint_1	joint_2	joint_3	joint_4	joint_5	joint_6	joint_7	joint_8	joint_9	joint_10	joint_11	joint_12	joint_13	joint_14	joint_15	joint_16	joint_17	joint_18	joint_19	joint_20	joint_21	joint_22	joint_23	joint_24	joint_25	joint_26	joint_27	joint_28	joint_29	joint_30	joint_31	joint_32	joint_33
7.633486	51.83045	4.7476425	54.652878	40.03279	40.957264	0.5598713	1.5396914	-0.616784	-4.0979347	-26.345303	9.999999e-07	5.496783	-0.31350797	-1.960737	-24.157364	9.999999e-07	4.418452	-6.0250425	0.088291995	-1.0594879	9.272605	-8.339045	23.017418	29.849804	76.54515	0.0	0.0	8.172754	-6.0271797	18.765316	24.894115	75.16994	0.0	0.0
7.650153	51.814808	4.748846	54.610825	40.04095	40.948986	0.5662679	1.5453694	-0.60149693	-4.0799627	-26.309538	9.999999e-07	5.5583057	-0.279966	-1.9886129	-24.151726	9.999999e-07	4.4559097	-6.0471954	0.107685	-1.0470929	9.224836	-8.345332	23.026876	29.809471	76.54247	0.0	0.0	8.179079	-6.028649	18.778625	24.904598	75.168396	0.0	0.0
7.66682	51.7963	4.752685	54.599136	40.050877	40.938896	0.574477	1.5524269	-0.58998096	-4.055707	-26.26698	9.999999e-07	5.6465397	-0.24864398	-2.022633	-24.124043	-9.999999e-07	4.5177307	-6.0583096	0.126967	-1.037474	9.179273	-8.356235	23.034306	29.774988	76.540474	0.0	0.0	8.198414	-6.0364704	18.786991	24.920145	75.16714	0.0	0.0
7.683487	51.778538	4.7594457	54.615753	40.060947	40.92876	0.58231705	1.5568169	-0.57680196	-4.031076	-26.222683	0.0	5.7434306	-0.21827799	-2.0550227	-24.085695	-3.9999995e-06	4.587782	-6.0572896	0.14518198	-1.0271859	9.142208	-8.368514	23.04216	29.746492	76.53812	0.0	0.0	8.227616	-6.048841	18.79703	24.943308	75.16607	0.0	0.0
7.700154	51.764328	4.7680974	54.651047	40.06877	40.921116	0.5883182	1.554226	-0.55518895	-4.01459	-26.18169	-9.999999e-07	5.8255157	-0.18663399	-2.075594	-24.046932	-7.999999e-06	4.6475015	-6.0428247	0.16009898	-1.0132179	9.120149	-8.380101	23.054714	29.72537	76.53365	0.0	0.0	8.261072	-6.0660157	18.819752	24.97938	75.16517	0.0	0.0
7.716821	51.75562	4.7764053	54.689434	40.0727	40.91773	0.5933113	1.5401615	-0.515193	-4.0117745	-26.142237	-3.9999995e-06	5.8755903	-0.147491	-2.0774488	-24.012602	-1.4999999e-05	4.6848626	-6.0101876	0.168304	-0.9913179	9.117398	-8.391666	23.079842	29.71154	76.523895	0.0	0.0	8.29612	-6.0933423	18.87371	25.041452	75.16424	0.0	0.0
7.733488	51.753784	4.7819057	54.714474	40.072678	40.918736	0.60089725	1.5108975	-0.44507197	-4.0222197	-26.093674	-7.999999e-06	5.8877726	-0.090299994	-2.0603719	-23.98144	-2e-05	4.698145	-5.9514728	0.16539499	-0.95581895	9.134532	-8.406687	23.12849	29.702305	76.50442	0.0	0.0	8.334025	-6.1412406	18.98352	25.14948	75.1628	0.0	0.0
7.750155	51.758026	4.782765	54.719513	40.069973	40.922817	0.6157669	1.4653544	-0.33678296	-4.040598	-26.02206	-1.3999999e-05	5.8642497	-0.004791	-2.0304239	-23.949503	-2e-05	4.693093	-5.860243	0.146644	-0.902288	9.169656	-8.429499	23.21012	29.694298	76.471275	0.0	0.0	8.377347	-6.2207837	19.169846	25.320522	75.16023	0.0	0.0
7.766822	51.76364	4.778239	54.711205	40.066566	40.927814	0.64009684	1.4071939	-0.19346298	-4.059149	-25.92049	-1.6999998e-05	5.8134627	0.110434994	-1.9974059	-23.913872	-6.9999996e-06	4.680171	-5.7402434	0.110351995	-0.832441	9.222282	-8.462301	23.323591	29.68679	76.424484	0.0	0.0	8.431013	-6.3360286	19.429474	25.552202	75.15599	0.0	0.0
7.783489	51.763355	4.769415	54.700607	40.06447	40.931465	0.6703338	1.3453169	-0.033509	-4.070157	-25.796755	-1.4999999e-05	5.7505918	0.24157198	-1.9713848	-23.874178	2.9999997e-05	4.6732388	-5.6128335	0.062012997	-0.75739396	9.297357	-8.503035	23.45024	29.684595	76.37072	0.0	0.0	8.506398	-6.4778447	19.719545	25.811506	75.14985	0.0	0.0
7.800156	51.751495	4.757841	54.692356	40.06527	40.93199	0.6989746	1.2898066	0.11904	-4.0676227	-25.665327	0.0	5.692402	0.36777097	-1.9598409	-23.830482	9.8e-05	4.6861744	-5.5111647	0.012812999	-0.69205695	9.404996	-8.54776	23.56348	29.69826	76.3198	0.0	0.0	8.62086	-6.6294336	19.977278	26.05278	75.14136	0.0	0.0
7.816823	51.724277	4.7434597	54.68399	40.06988	40.928482	0.72019863	1.2453592	0.25300598	-4.0480056	-25.528633	3.6999998e-05	5.6470146	0.47901198	-1.9664028	-23.779226	0.00020099999	4.7277017	-5.4627366	-0.027417999	-0.643896	9.557868	-8.59661	23.650288	29.742548	76.27657	0.0	0.0	8.793832	-6.7816644	20.165747	26.255943	75.128876	0.0	0.0
